<?xml version="1.0" encoding="UTF-8"?>
<svg id="Layer_2" data-name="Layer 2" xmlns="http://www.w3.org/2000/svg" viewBox="0 0 971.93 637.66">
  <defs>
    <style>
      .cls-1 {
        fill: #f6f5cc;
      }

      .cls-2 {
        fill: #f8f7db;
      }

      .cls-3 {
        fill: #efb02d;
      }

      .cls-4 {
        fill: #342765;
      }

      .cls-5 {
        fill: #371c53;
        stroke: #efb02d;
        stroke-miterlimit: 10;
        stroke-width: 20px;
      }
    </style>
  </defs>
  <g id="Layer_1-2" data-name="Layer 1">
    <g>
      <path class="cls-3" d="m287.96,5.47c-11.59-9.27-29.76-4.37-37.46-2.42-57.9,14.66-61.29-1.36-106.05,16.96-28.15,11.52-46.08,25.68-73.71,47.7-5.9,4.7-11.28,10.28-22.06,21.45-10.66,11.05-13.89,15.47-14.2,21.45-.35,6.88,3.35,12.51,6.65,17.52,4.05,6.16,6.42,6.56,15.11,16.62,5.91,6.83,5.57,7.53,8.76,10.88,4.34,4.56,11.55,10.19,23.87,13.9-2.55.06-10,.58-16.92,6.04-.91.72-10.48,8.49-10.57,19.64-.06,6.9,3.58,7.78,5.44,19.34,1.23,7.66-.08,9,1.51,12.39,3.65,7.76,14.81,9.79,21.45,10.88,39.06,6.37,68.58,5.74,68.58,5.74,9.04-.19,25.64-.81,35.35,4.23,1.11.58,4.59,2.5,9.67,3.63,5.13,1.13,9.54.93,12.39.6-38.73,6.65-68.8,4.45-89.73.91-12.87-2.18-34.23-6.89-63.45-6.34,0,0-14.55.27-42.9,9.06-9.27,2.87-17.56,6.11-19.34,12.69-1.19,4.42,1.04,8.56,2.11,10.57,6.72,12.6,11.57,26.15,18.43,38.67,15.61,28.47,13.33,40.27,27.19,48.04,6.63,3.71,13.32,4.47,13.9,4.53,4.88.51,11.57-1.37,24.77-5.14,16.15-4.61,18.01-5.17,21.45-6.65,8.88-3.8,14.75-7.86,16.62-9.06,20.89-13.55,66.11-11.71,79.16-11.18,43.93,1.79,56.44,11.62,75.53,7.55,2.26-.48,8.97-2.09,15.11,1.21,6.63,3.56,9.5,11.18,10.88,16.92-9.42.08-17.03.37-22.06.6-16.8.78-19.94,1.66-28.7.91-10.8-.93-11.48-2.74-19.34-2.72-11.91.03-20.66,4.22-24.17,5.74-32.63,14.19-90.91,7.2-115.11,26.89-2.74,2.23-5.69,5.33-6.65,9.67-1.99,9.05,5.92,17.9,10.57,22.96,51.08,55.63,64.24,60.74,74.62,61.94,9.75,1.12,18.73-.3,18.73-.3,9.6-1.52,13.33-4.31,22.66-7.55,14.61-5.08,16.64-2.13,34.74-6.65,13.37-3.33,11.15-4.66,28.7-9.97,7.26-2.19,8.06-2.19,39.88-7.86,8.52-1.52,6.67-1.25,32.63-6.04,90.03-16.62,103.69-13.71,162.54-26.59,9.73-2.13,9.36-2.24,15.61-3.48,24.14-4.77,50.52-9.73,79.26-2.57,12.25,3.05,25.26,8.39,24.77,10.88-.45,2.3-12.38.48-29.61,1.51-21.62,1.29-50.08,2.99-60.73,20.85-6.62,11.1-3.44,23.56-3.05,24.98,3.57,13.13,15.53,19.74,39.3,32.42,25.1,13.39,37.97,20.03,53.17,17.22,8.49-1.57,7.4-4,26.59-10.57,9.59-3.28,20.31-6.95,34.14-8.76,17.31-2.26,19.56,1,37.16-1.81,8.91-1.42,16.59-2.65,25.68-7.25,8.73-4.42,23.6-11.75,25.68-24.47,1.43-8.73-3.86-17.43,1.81-25.08,1.45-1.96,2.93-2.92,3.63-3.32,6.48-3.77,16.69-.95,21.15,5.44.49.71,1.64,2.38,2.11,4.83,1.11,5.69-2.37,10.44-4.23,13.6-7,11.92-7.28,29.13-.91,38.67,1.34,2,2.99,3.7,5.74,5.74,28.37,21.03,81.87,10.1,98.79,4.53,2.49-.82,6.64-2.33,10.27-6.04,7-7.15,7.13-17.42,7.25-21.45,1.11-38.42,16.21-48.1,8.76-80.37-1.77-7.67-5.7-23.89-18.43-38.97-12.1-14.34-28.42-23.21-60.73-40.79-11.63-6.33-19.2-9.95-26.59-19.03-7.15-8.79-15.86-24.8-9.97-35.35,1.84-3.3,5.68-7.07,10.27-7.25,6.3-.25,10.9,6.33,12.39,8.46,6.95,9.94,2.69,17.4,6.65,27.49,4.38,11.18,15.28,16.5,23.57,20.54,4.02,1.96,27.61,13.47,52.87,1.81,2.72-1.26,21.04-10.06,29.61-31.12,6.36-15.63,7.46-38.28-3.93-50.15-2.02-2.1-6.21-6.47-12.69-7.86-5.23-1.12-11.63-.23-16.16.41-5.82.81-7.56,1.68-9.83.5-2.97-1.55-4.18-5.21-5.14-10.88-2.43-14.43.63-19.16-1.21-26.89-2.16-9.09-9.24-14.53-15.11-19.03-15.11-11.6-32.49-11.8-39.28-11.78-16.66.04-16.64,5.49-45.62,9.06-12.96,1.6-19.62,2.36-28.7.6-11.42-2.21-13.31-5.8-22.06-5.14-9.8.75-13.73,5.74-22.36,4.23-5.91-1.03-9.39-4.3-11.48-5.74-15.3-10.51-49.94,10.76-66.47,18.73-40.58,19.57-82.77,12.38-105.74,8.46-7.48-1.27-36.31-14.56-93.66-41.09-20.32-9.4-50.9-23.64-86.11-41.09-50.16-24.86-42.68-23.01-46.83-24.17-7.73-2.17-21.12-5.08-28.7-16.01-1.28-1.85-4.41-6.48-4.53-12.69-.14-6.81,3.46-8.72,6.34-16.62.35-.95,5.7-16.29-.91-31.42-1.24-2.84-3.56-8.17-8.46-12.08Z"/>
      <path class="cls-4" d="m253.49,20.13s-5.11,1.96-19.48,5.85c-18.72,5.07-28.33.58-49.65.35-10.45-.11-27.53.21-46.59,8.32-10.78,4.59-34.95,14.87-43.86,35.08-1.97,4.48-3.67,10.52-9.74,15.81-5.74,5.01-9.66,4.34-17.01,10.55-3.79,3.2-7.94,6.7-9.74,12.45-1.92,6.14-2.07,15.42,3.25,19.38,3.32,2.47,8.11,2.41,9.32,2.39,4.98-.07,6.7-2.17,8.55-1.01,2.9,1.81-.59,7.37,2.41,13.24,2.59,5.05,6.36,3.26,10.71,9.22,3.93,5.4,2.86,9.64,6.76,11.58,3.25,1.62,6.15-.68,7.28.84,1.2,1.61-1.74,4.46-4.79,11.32-3.38,7.61-2.58,10.42-5.47,11.87-1.26.63-4.08.64-9.7.41-3.04-.13-4.28-.42-5.73.47-2.28,1.42-1.6,3.67-4.1,5.74-2.37,1.97-4.13.89-5.31,2.4-2.41,3.05,2.79,11,3.66,12.31,2.31,3.52,6.57,9.82,15.51,14.28,3.55,1.77,6.62,2.64,27.92,4.66,18.03,1.71,19.11,1.35,24.31,2.79,9.35,2.59,10.11,4.79,19.39,6.97,7.24,1.7,12.69,1.74,22.51,1.82,8.3.07,10.16-.44,25.66-.75,11.69-.23,16.01-.06,20.79,2.66,2.95,1.68,9.54,6.32,8.69,10.1-1.11,4.95-14.19,4.93-42.43,7.52-31.36,2.88-28.52,4.11-44.63,4.78-22.41.92-40.01-.98-51.3-2.25-17.63-1.97-38.65-5.55-62.73-2.21-5.23.72-13.16,2.13-16.57,8.2-2.84,5.05-2.08,12.51,1.59,17.32,5.64,7.38,16.68,6.54,16.75,9.92.04,1.79-3.06,1.92-6.27,5.43-4.2,4.58-5.84,11.92-3.67,17.88.49,1.34,2.01,5.54,5.87,7.28,3.17,1.43,5.17-.03,10.62-.38,4.12-.26,13.65-.1,15.12,3.58,1.38,3.45-5.7,6.55-5.04,12.27.61,5.28,7.31,8.54,9.87,9.79,5.71,2.78,11.19,2.75,14.21,2.49,11.72-1,18.06-8.07,27.35-14.09,9.12-5.91,17.67-8.05,34.76-12.35,7.66-1.93,18.2-3.91,56.38-3.55,0,0,74.34.57,103.91,13,12.36,5.19,13.81,11.31,14.06,12.57.76,3.89-1.07,5.4-.47,8.91,1.38,8.01,19.21,9.81,19.06,12.35-.25,4.03-29.36,3.84-29.36,3.84-20.3.82-36.37,1.29-45.8,1.54-28.37.76-86.79,1.95-133.58,17.37-7.5,2.47-18.49,6.56-19.65,14.11-1.01,6.54,5.41,15.18,13,17.67,7.63,2.5,14.38-1.89,17.13,1.76,1.18,1.57.2,2.73.7,8.85.41,4.99.63,7.89,2,10.25,3.26,5.58,11.64,6.58,17.92,7.32,10.49,1.24,15.13-1.29,18.12,2.11,1.46,1.65.79,2.74,2.21,10.68,1.24,6.9,1.83,10.35,3.15,11.92,5.27,6.31,19.08,2.67,21.29,2.09,7.41-1.95,10.39-4.97,17.4-9.03,6.43-3.72,13.32-5.94,27.09-10.39,11.62-3.75,24.72-7.41,46.96-12.33,23.04-5.1,40.57-8.17,43.19-8.62,39.06-6.78,69.24-10.44,109.03-15.52,29.62-3.78,59.25-7.48,88.87-11.25,40.1-5.1,79.44-10.15,104.68,7.41,2.95,2.05,17.13,11.92,15.14,17.15-1.07,2.82-6.43,3.22-9.29,3.4-31.27,1.99-48.27-3.25-67.1,2.11-4.28,1.22-23.71,6.75-26.24,20.03-1.35,7.1,2.12,16.42,8.46,19.58,7.32,3.66,14.07-3.09,19.65.99,5.56,4.06,1.67,12.8,6.43,15.9,7.35,4.79,23.72-11.48,27.57-8.02,3.45,3.1-8.91,16.86-4.38,23.84,4.31,6.64,21.37,3.35,30.84.3,15.33-4.93,14.75-10.53,28.83-16.73,9.26-4.08,10.08-1.91,52.5-7.98,11.29-1.61,18.92-2.87,27.68-7.8,5.31-2.99,12.88-7.4,17.03-16.57,1.26-2.79,6.11-13.49,1.43-21.46-5.11-8.7-16.62-5.74-26.36-17.64-2.02-2.46-5.05-6.17-3.91-8.2,2.06-3.68,15.27,2.63,41.71,9.04,23.6,5.72,33.82,5.73,40.26,15.26.91,1.34,4.19,6.33,4.45,13.12.4,10.53-6.91,13.75-9.44,27.58-.96,5.27-2.43,13.34,2.29,18.52,3.35,3.67,8.91,4.84,13.39,4.28,11.02-1.38,16.85-14.26,19.12-12.97,2.21,1.25-4.79,12.6-.5,17.6,2.98,3.47,10.34,2.53,15.04.7,11.08-4.33,15.21-16.72,17.53-15.72,2.01.86-2.37,9.65,1.86,14.76,3.74,4.52,11.84,3.29,13.37,3.06,7.67-1.16,14.2-6.67,17.43-13.04,3.87-7.64.32-11.24.23-26.86-.07-12.83,2.24-23.44,5.38-37.78,3.04-13.92,4.49-14.98,4.36-21.4-.1-5.19-1.24-14.93-9.58-27.59-12.21-18.53-27.4-24.43-58.73-44.53-41.21-26.45-45.41-35.81-47.07-40.63-6.16-17.88-1.56-43.43,12.68-49.14,7.4-2.97,17.36-.56,23.3,4.83,6.5,5.91,4.65,12.21,11.86,31.7,3.81,10.3,5.71,15.44,8.73,18.78,11.29,12.49,32.7,12.7,47.08,8.23,4.5-1.4,17.96-5.58,26.1-18.8,1.71-2.77,8.55-13.87,5.07-26.61-1.92-7.05-7.51-16.43-14.67-16.96-3.37-.25-4.12,1.68-11.23,4.78-6.29,2.74-15.75,6.87-21.32,3.51-1.75-1.05-4.07-3.42-5.45-15.42-1.9-16.49,1.46-20.54.2-29.91-1.68-12.43-10.48-25.98-22.48-30.79-6.65-2.66-15.89-.93-34.09,2.66-15.47,3.04-19.93,7.63-31.5,7.18-9.84-.38-16.86-3.61-19.71-4.79-23.94-9.88-61.7-1.85-79.43,1.64-78,15.35-118.77,23.38-164.16,14.8-19.66-3.71-38.47-11.83-76.08-28.07-49.03-21.16-39.43-23.23-102.35-53.08-23.1-10.96-42.68-28.23-64.81-41.04-2.57-1.49-19.59-11.31-18.04-19.96.81-4.49,6.13-5.92,6.81-12.13.57-5.21-2.96-6.2-3.03-12.17-.08-7.41,5.33-9.11,4.81-15.06-.48-5.6-5.88-11.1-11.55-12.61-6.06-1.61-9.97,2-22.48,6.79Z"/>
      <path class="cls-3" d="m232.71,98.8c1.21-4.75,7.11-4.33,16.05-10.34,8.38-5.63,12.94-12.53,14.82-15.43,4.88-7.53,6.42-14.01,8.11-21.07,2.86-11.98,1.48-17.38-.24-18.57-1.8-1.23-3.88-1.61-3.88-1.61,0,0-.85-.15-1.7-.15-3.16,0-8.78,6.7-10.31,8.26-2.51,2.56-6.9,4.49-31.53,1.32-15.85-2.04-14.27-2.87-23.22-3.7-17.18-1.6-30.78.73-37.66,2.23-6.14,1.34-14.27,3.11-23.92,7.98-9.81,4.95-16.73,11.7-30.57,25.2-12.28,11.98-16.38,17.8-18.5,25.38-1.08,3.87-2.83,10.09.25,14.14,4.29,5.65,14.81,2.95,26.18,1.93,26.85-2.41,50.04,5.35,63.45,12.56,9.5,5.11,21.45,11.54,25.83,25.15,5.8,18.04-6.29,34.47-7.45,36-10.23,13.46-25.83,16.4-34.44,18.02-5.12.96-11.73.99-24.94,1.03-16.23.05-24.34.08-28.87-.42-9.46-1.04-16.34-2.76-18.45.53-1.04,1.62-.75,4.19.33,5.82,1.59,2.38,4.85,2.62,7.03,2.93,9.68,1.4,14.52,2.09,17.67,2.17,7.55.18,12.89.81,21.75,1.84,7.74.91,8.67,1.4,21.96,3.42,9.71,1.47,15.11,2.29,20.04,2.76,6.81.65,19.31,1.85,33.69-1.15,7.95-1.66,40.13-8.39,49.02-27.94,1.2-2.63,3.24-8.27,7.66-9.27,4.78-1.08,9.63,3.88,10.48,4.75,2.61,2.67,5.35,7.24,3.98,9.06-1.33,1.76-5.15-.76-7.38,1.23-2.52,2.25.8,6.86-1.37,10.63-2.01,3.49-6.49,2.38-13.83,4.78-6.57,2.14-16.82,7.55-16.77,13.41.04,4.29,5.57,7.45,9.06,9.44,8.7,4.96,17.62,4.68,22.36,4.12,11.24-2.1,20.45-2.67,27.14-2.76,9.99-.14,20,.72,23.65-4.91,1.12-1.73,1.22-3.43,3.38-5.41,3.31-3.05,7.63-3.27,9.6-3.36,4.25-.21,9.92.87,10.23,2.95.18,1.19-1.57,1.47-2.27,3.51-1.25,3.63,2.97,6.59,2.18,9.31-1.03,3.56-9.78,3.9-10.37,3.93-15.71.64-30.47,8.23-46.09,10.03-42.69,4.93-40,6.95-78.69,10.48-29.33,2.68-53.41,5.02-85.33,3.95-25.69-.86-38.54-1.29-41.74-1.75-11.4-1.64-26.93-4.86-46.9-1.85-4.8.72-12.95,1.85-13.4,4.91-.39,2.73,5.44,5.99,6.62,6.65,6.61,3.69,10.06,2.27,11.84,5.25,2.31,3.85-1.88,9.27.86,11.66,1.2,1.04,2.57.54,3.75,2.04.89,1.15.9,2.53.89,4.3-.03,3.96-1.34,4.86-.68,6.19.85,1.73,3.87,1.86,8.43,2.02,6.87.23,7.91-.94,9.86.22,1.95,1.16,2.64,4.52,3.96,11.2,1.97,9.96.84,11.77.32,12.46-1.85,2.45-4.97,2.41-5.08,4.16-.09,1.51,2.14,2.9,3.57,3.52,4.9,2.11,10.61-.64,13.54-2.18,11.1-5.87,14.86-11.76,22.34-17.33,11.65-8.68,24.3-10.59,37.17-12.53,10-1.51,17.62-1.3,23.79-1.1,43.14,1.4,60.95,3.14,60.95,3.14,41.17,4.04,63.81,6.26,93.13,5.47,20.99-.56,41.86-.72,58.36-9.16,20.6-10.54,25.12-14.85,25.12-14.85,4.9-4.68,8.01-9.26,13.78-9.65,4.57-.31,10.1,2.05,12.53,6.77,3.24,6.26-.83,13.08-1.46,14.14-3.36,5.63-9.01,7.92-22.64,11.77-14.81,4.18-27.51,6.94-33.34,8.19-14.62,3.15-21,3.97-30.12,8.37-8.23,3.96-13.73,6.61-14.13,10.46-.35,3.42,2.99,10.99,54.44,28.12,56.28,18.74,84.42,28.1,108.94,25.28,7.4-.85,31.91-4.5,65.81-3.84,1.47.03,2.61.06,3.35.07,0,0,15,.4,29.42-.17,3.61-.14,7.49-.37,11.93-.73,3.56-.29,14.22-1.22,27.32-5.39,10.38-3.31,21.09-6.88,22.98-14.86,1.04-4.41-1.02-8.39-1.18-8.68-3.61-6.72-11.42-4.91-17.73-12.68-1.43-1.76-4.04-4.97-3.68-9.1.55-6.29,7.55-9.58,7.97-9.77,5.42-2.46,10.8-.68,12.97.07,9.87,3.41,13.06,11.61,20.86,21.1,4.32,5.26,10.58,10.08,23.11,19.72,12.37,9.53,39.35,30.29,76.71,39.42,11.14,2.72,25.49,4.97,44.99,13.55,11.45,5.04,18.73,9.64,20.1,16.63.81,4.15-1.3,9.03-5.85,18.63-6.51,13.75-10.62,18.65-8.33,22.78,1.14,2.06,3.71,3.65,5.62,3.2,2.8-.66,2.24-5.09,6.6-9.74,2.67-2.84,5.66-4.14,7.61-4.98,2.36-1.02,5.53-2.39,9.72-2.1,2.57.18,6.97.45,8.84,3.37,2.58,4.03-1.66,9.04,1.43,12.76.34.41,1.58,1.9,2.98,1.73,2.6-.32,2.32-5.73,7.05-9.8,1.72-1.48,3.44-2.21,4.98-2.86,2.71-1.15,5-2.12,6.95-1.35,1.24.49,2.16,1.62,3.74,6.2,3.02,8.74,2.45,12.79,5.48,14.5,1.18.67,2.85.78,4.14.2,4.66-2.12,3.71-13.59,3.47-17.09-2.6-37.46,13.66-56.67-.15-82.91-9.93-18.88-29.33-29.81-42.9-37.46-11.03-6.21-16.22-7.06-29.74-15.77-15-9.67-23.57-15.19-30.38-26.05-2.85-4.54-13.7-23.29-7.56-45.47,1.21-4.38,5.89-21.3,22.03-29.68,2.35-1.22,16.73-8.68,29.07-2.58,6.5,3.21,10.17,10.4,17.23,24.64,8.9,17.95,7.47,21.47,13.99,28.89,2.75,3.13,13.02,14.8,26.87,13.72,8.64-.67,13.94-5.93,24.18-16.1,5.07-5.03,6.77-8.1,6.14-10.9-.83-3.68-5.41-5.5-6.28-5.85-10.67-4.25-17.48,5.89-28.29,3.85-10.26-1.94-17.7-13.76-19.99-22.59-2.64-10.16,1.98-13.01.14-27-.67-5.12-1.84-14-8.58-20.48-9.55-9.2-23.98-7.51-26.89-7.17-7.29.85-7.49,3.03-18.99,6.09-1.74.46-11.82,3.09-23.01,3.43-14.62.45-25.2-3.04-31.76-4.83-25.67-7-49.61-2.92-73.93,1.21-21.7,3.69-18.84,6.58-51.02,13.8-28.65,6.43-50.24,8.48-55.95,8.98-28.61,2.54-46.1,4.1-68.55-.74-23.24-5.01-39.56-14.64-55.92-23.34-4.93-2.62-8.28-4.6-13.32-7.54-31.27-18.28-35.39-24.38-63.54-41.27-16.69-10.02-14.91-8.05-29.12-17.12-14.63-9.33-27.74-18.86-39.5-27.4-12.38-8.99-26.96-14.63-39.47-23.44-.85-.6-3.48-2.49-7.05-2.55-3.25-.06-5.86,1.42-8.27,3.11-9.34,6.53-12.5,13.98-21.62,19.25-1.03.59-2.64,1.45-4.43,1.06-3.63-.8-6.69-6.47-5.63-10.59Z"/>
      <path class="cls-3" d="m459.29,403.84c.42,2.81-5.56,5.93-7.59,6.98-5.62,2.92-9.91,3.15-16.5,4.23-11.42,1.87-10.47,3.13-18.49,4.19-8.87,1.17-11.17-.23-22.7-.42-10.66-.17-18.48.87-27.84,2.11-11.5,1.53-15.24,2.9-29.47,5.84-12.33,2.55-23.2,4.19-44.95,7.49-30.08,4.56-30.52,3.79-38.62,6.4-17.87,5.75-26.81,8.63-33.48,14.46-.88.77-5.46,4.85-12.48,6.88-3.15.91-7.71,2.16-11.31-.21-3.05-2.01-3.99-5.67-4.27-6.74-1.08-4.15.77-5.45-.49-9.77-.79-2.7-2.59-4.3-4.11-5.74-4.28-4.08-9.32-5.15-11.13-5.45-1.27-.21-4.35-.22-10.51.06-6.68.3-7.36-.1-7.77-.54-1.89-1.98.86-5.24.09-12.21-.22-2.03-.72-4.89-2.9-7.3-2.89-3.19-7.11-3.63-8.29-3.75-5.59-.58-7.53,2.28-12.51,1.09-1.84-.44-4.83-1.64-4.84-3.08-.02-2.52,9.18-4.5,17.14-6.22,6.57-1.42,10.51-2.26,16.15-2.35,7.2-.11,8.02,1.17,15.14.91,4.33-.15,6.39-.71,14.26-2.17,7.34-1.36,15.1-2.64,19.68-3.29,8.04-1.13,14.19-1.32,26.15-1.65,14.97-.42,16.4.11,26.5-.17,3.45-.1,9.73-.34,38.45-3.71,22.24-2.61,33.35-3.91,36.88-4.56,15.89-2.93,24.02-5.76,37.73-4.52,6.35.57,12.97,1.93,14.64,2.28,8.18,1.7,10.69,2.94,22.22,6.43,19.52,5.9,29.28,8.85,33.03,9.69,6.5,1.44,11.79,2.31,12.17,4.82Z"/>
      <path class="cls-3" d="m684.86,384.09c-2.51-1.25-5.57-2.71-9.33-2.16-4.54.67-7.94,3.97-10.18,6.15-3.96,3.85-3.05,4.99-6.33,7.25-1.51,1.04-1.86.91-9,4.14-3.66,1.66-4.84,2.26-5.41,3.04-.02.03-.17.26-.28.48-1.24,2.46.6,7.44,3.89,10.68,3.54,3.48,5.78,2.02,13.89,6.27,4.09,2.14,6.16,3.26,7.11,5.51,1.41,3.31-.21,6.89-2.01,11.25-1.12,2.7-2.43,5.86-5.47,8.52-2.42,2.11-5.37,3.42-11.52,4.43-8.4,1.38-13.92.76-21.95.58-3.12-.07-.4.07-18.5.46-17.87.39-23.38.32-31.01,3.19-3.76,1.41-10.35,3.97-10.48,7.83-.07,2.24,2.07,4.83,4.36,5.12,3.38.44,4.49-4.45,9-5.3,4.16-.78,8.88,2.32,11.08,5.81,2.99,4.74,1.8,10.91,1.27,13.57-.92,4.62-2.32,6.42-1.2,8,1.22,1.72,4.57,1.77,6.94,1,3.15-1.03,3.62-3.21,8.31-8.22,3.89-4.15,5.88-6.22,8.41-6.29,4.3-.11,7.47,4.97,8.08,5.99,3.41,5.8,1.48,12.47,1.31,13.03-1.23,4.04-3.34,5.15-2.88,8.22.31,2.08,1.88,4.52,4.02,5.17,3.74,1.14,7.01-3.92,14.35-9.8,1.35-1.08,7.66-4.61,20.29-11.68,10.87-6.08,13.83-7.59,18.48-7.62,3.95-.03,4.64,1.05,10.08,1.53,6.56.58,12.16.44,16.93-1.62,24.83-10.69,48.47-11.91,48.36-19.69-.04-2.89-4.67-6.1-14.03-12.35-2.89-1.93-7.44-4.87-13.25-9.4-5.11-3.99-6.58-5.63-6.86-7.83-.54-4.25,3.96-5.7,4.8-10.11,1.21-6.37-6.46-12.68-16.32-20.8-5.92-4.88-12.26-8.03-24.93-14.33Z"/>
      <path class="cls-3" d="m161.55,141.03c-1.45-.2-1.93,1.88-6.45,6.37-4.44,4.41-6.29,4.7-6.41,6.67-.13,1.99,1.68,2.99,7.36,8.15,6.6,5.99,7.65,7.8,8.92,7.32,2.37-.89,1.6-8.19,1.01-13.86-.54-5.19-1.49-14.23-4.43-14.64Z"/>
      <path class="cls-3" d="m122.15,138.31c-1.89,0-3.28,2.31-3.46,2.6-1.98,3.3.76,5.78.39,11.84-.32,5.23-2.57,6.89-1.23,8.86,1.67,2.46,5.6.47,8.07,3.32,2.08,2.4.75,5.47,2.88,6.62,1.25.68,2.96.29,4.02-.4,1.67-1.1,1.36-2.74,2.9-5.87,1.74-3.54,3.04-3.31,3.28-5.02.47-3.27-4.2-4.52-8.9-10.53-4.8-6.13-5.1-11.41-7.96-11.42Z"/>
      <path class="cls-2" d="m107.69,131.74c3,2.09,4.37,6.5,3.1,9.34-.87,1.95-2.32,1.66-3.85,4.18-1.77,2.92-.82,4.95-2,5.53-1.83.9-6.15-3.06-8.48-7.46-.66-1.25-4.1-7.73-1.34-10.95,1.43-1.67,3.96-1.79,6.14-1.9,1.98-.1,4.3-.21,6.42,1.26Z"/>
      <path class="cls-2" d="m143.42,129.93c-3.17-.12-3.81-1.01-5.94-1.09-3.06-.12-7.15,1.5-8.4,4.41-1.7,3.96,2.05,8.38,5.32,12.23,1.83,2.16,6.17,7.27,9.38,6.19,1.49-.5,1.33-1.85,3.67-5.53,3.44-5.39,5.67-5.43,6.04-8.34.44-3.36-2.18-7.28-5.08-8.1-1.54-.44-1.96.34-5,.22Z"/>
      <path class="cls-2" d="m149.13,170.77c-1.46-.35-3.53,3.6-5.3,6.97-2.83,5.38-5.69,10.84-3.72,13.01,1.12,1.23,3.35.92,7.37.37,3.57-.49,5.36-.74,6.17-2.07,1.14-1.85-.85-3.72-2.42-9.57-1.48-5.56-.9-8.42-2.1-8.71Z"/>
      <path class="cls-2" d="m116.24,172.2c-2.24-.3-4.26,2.67-7.14,6.92-3.11,4.58-6.47,9.53-4.78,11.93.73,1.04,1.91.88,8.69,1.1,8.96.3,10.3.71,11.22-.46,1.32-1.67-.11-4.99-2.96-11.64-2.18-5.08-3.3-7.62-5.03-7.85Z"/>
      <path class="cls-4" d="m187.46,67.26c-4.06-.93-4.71-.15-12.68-.37-11.46-.32-12.79-2.08-19.33-.99-4.34.72-9.06,1.51-12.22,5.45-3.66,4.57-3.6,11.37-1.29,16.14,2.56,5.27,7.55,7.37,13.82,10,8.18,3.44,8.9,1.27,18.02,4.81,6.86,2.67,8.85,4.82,15.72,6.11,5.37,1.01,8.3.47,9.82.08,1.63-.42,7.33-1.87,9.68-6.72.5-1.04,1.14-2.94.78-7.23-.25-2.88-1.11-12.95-9.64-20.63-1.49-1.34-5.99-5.11-12.69-6.65Z"/>
      <path class="cls-1" d="m160.44,72.36c-2.6.49-9.89,1.87-11.03,6.54-.85,3.47,2.16,6.83,3.28,8.09,4.07,4.55,9.75,5.09,13.77,5.46,3.76.35,7.1.67,8.95-1.45,1.68-1.92,1.22-4.77.78-7.54-.46-2.9-1.19-7.5-5.05-10.09-3.52-2.36-7.51-1.61-10.7-1.01Z"/>
    </g>
    <g>
      <g>
        <path class="cls-5" d="m39.52,391.77c-.91-10.05,7.28-69.87,64.48-75.07,24.27-2.21,39.8,22.6,43.99,30.26,16.3-28.39,29.6-39.74,57.68-42.29,26.35-2.39,41.47,17.9,43.24,37.32,3.31,36.4-34.67,68.51-70.88,81.59,33.5,3.25,55.72,16.96,58.08,42.96,3.78,41.6-32.62,87.2-90.17,92.43-26.69,2.43-43.33-11.44-50.17-21.31,0,0-8.45,22.44-8.79,22.47-6.49,1.64-11.98,2.84-20.64,3.62-8.67.79-17.59-1.2-18.34-9.52-1.64-18.03,64.59-185.53,62.92-203.9-.35-3.81-3.4-6.68-7.56-6.3-18.37,1.67-34.35,37.38-41.98,61.14-6.37-.82-20.83-2.3-21.84-13.39Zm72.64,95.46c3.69-1.73,18.5-7.97,28.55-8.89,7.28-.66,15.35,3.5,16.17,12.51.16,1.73-.41,3.18-1.61,5.39-20.96,4-29.12,18.02-28.37,26.34.85,9.36,7.91,13.96,18.31,13.02,23.92-2.17,48.19-31.29,45.7-58.68-1.17-12.83-13.74-31.96-36.27-29.91-32.24,2.93-43.9,32.3-42.48,40.21Zm21.47-59.97c30.51-2.77,77.59-57.73,75.01-86.16-.76-8.32-5.8-9.96-8.92-9.68-33.28,3.02-68.74,85.94-67.98,94.26.13,1.39.5,1.7,1.89,1.58Z"/>
        <path class="cls-5" d="m385.52,483.72c2.08-.19,3.31,5.64,3.4,6.68.69,7.63-2.87,14.59-6.81,17.4-1.29,1.17-3.66,2.08-5.74,2.27-9.01.82-20.93.5-25.9-4.29-10.94,18.12-21.37,37.94-48.41,40.4-32.24,2.93-53.2-23.83-55.37-47.75-3.56-39.17,22.13-102.67,68.24-106.86,23.57-2.14,47.46,14.56,49.6,38.14,1.35,14.91.53,36.65-6.59,50.58,4.57,4.13,15.85,5.2,23.83,4.48,1.73-.16,2.74-.6,3.75-1.04Zm-103.84,11.18c1.32,14.56,4.25,23.73,16.04,22.66,12.13-1.1,27.58-19.63,29.78-33.81-5.42-5.8-11.03-13.68-12.01-24.43-.98-10.75,3.31-25.12,14.4-26.12,3.12-.28,5.26.22,6.33.47-.72-7.97-7.66-15.03-18.75-14.03-20.45,1.86-38.7,43.36-35.81,75.26Z"/>
        <path class="cls-5" d="m439.97,498.35c-6.49,13.17-20.86,35.8-37.85,37.34-10.05.91-27.01-12.58-28.61-30.26-2.77-30.51,16.58-63.72,28.21-112.67,3.72-1.39,12.98-3.28,23.04-4.19,7.28-.66,14.94-1.01,15.6,6.27.41,4.51-35.59,81.53-33.6,99.52.44,4.85,4.19,7.66,8.35,7.28,15.95-1.45,30.82-41.6,52.32-116.6,3.37-1.35,12.98-3.28,23.04-4.19,6.93-.63,14.97-.66,15.6,6.27.54,5.89-34.45,74.78-32.03,101.48.31,3.47,4.03,5.92,7.5,5.61,10.4-.94,26.25-14.97,30.54-17.8,3.53.38,6.02,4.7,6.4,8.86.28,3.12-.22,5.26-1.42,7.47-.91,1.48-23.51,33.59-50.21,36.02-13.17,1.2-24.58-16.64-26.88-30.41Z"/>
        <path class="cls-5" d="m506.47,491.61c-2.55-28.08,19.92-80.8,39.02-143.71,7.82-25.53,16.86-56.76,22.51-71.6,4-2.11,19.73-5.99,29.44-6.87,7.63-.69,11.25.73,11.63,4.89.5,5.55-67.83,169.04-64.71,203.37.66,7.28,3.44,10.87,8.98,10.37,13.52-1.23,27.26-15.41,31.2-18.21,3.88.35,6.02,4.7,6.4,8.86.28,3.12-.28,4.57-1.42,7.47-.54,1.8-26.25,34.19-48.06,36.52-13.52,1.23-32.62-5.08-34.98-31.08Z"/>
        <path class="cls-5" d="m656.19,489.19c-3.97,6.3-20.68,26.35-32.46,27.42-12.83,1.17-38.57-5.23-42.1-44.06-4.47-49.23,32.81-104.35,68.17-107.56,12.83-1.17,22.85,5.26,26.38,13.33l31.3-117.14c3.69-1.73,13.33-3.31,23.04-4.19,7.28-.66,15.29-1.04,15.92,5.89.41,4.51-61.69,171.28-58.85,202.48.54,5.89,4.88,7.59,9.39,7.19,9.01-.82,24.02-12.67,28.3-15.5,3.53.38,6.02,4.7,6.4,8.86.28,3.12-.54,5.64-1.42,7.47-2.43,4.07-21.72,34.13-53.26,37-10.75.98-15.98-10.43-20.8-21.18Zm-33.41-2.21c19.07-1.73,46.39-66.43,44.57-86.54-.41-4.51-3.31-9.49-9.9-8.89-16.64,1.51-46.65,48.28-43.59,81.91.82,9.01,4.41,13.93,8.92,13.52Z"/>
        <path class="cls-5" d="m757.54,462.16c1.17,12.83,11.85,15,25.72,13.74,25.65-2.33,48.66-26.09,52.95-28.93,3.18.41,5.67,4.73,6.05,8.89.28,3.12-.22,5.26-1.42,7.47-1.86,2.62-26.41,36.3-60.39,39.39-33.63,3.06-55.46-21.87-57.7-46.49-4.38-48.19,25.85-100.22,58.78-103.21,24.96-2.27,40.37,17.3,41.76,32.56,2.61,28.77-20.14,66.84-43.37,68.95-4.16.38-18.97-4.92-21.4-8.54-.85,2.17-1.36,12.01-.98,16.17Zm5.77-44.21c.54,5.89,2.9,8.82,8.79,8.29,11.79-1.07,24.96-21.49,23.67-35.7-.72-7.97-3.53-11.91-8.73-11.44-10.75.98-25.15,23.26-23.73,38.86Z"/>
        <path class="cls-5" d="m870.46,462.39c-1.2-13.17,17.05-54.68,32.53-80.55-6.11,1.95-23.04,4.19-27.54,4.6-8.73,38.54-27.64,68.92-36.15,79.13-4.76,5.33-15.1-4.57-15.41-8.04-.41-4.51,18.03-17.02,31.77-77.34-1.23-1.99-4.41-6.24-5.26-15.6-2.33-25.65,18.53-42.23,28.93-43.17,8.32-.76,12.83,2.68,13.49,9.96.57,6.24-2.52,6.87-1.99,12.76.6,6.59,7.28,10.87,14.91,10.18,10.75-.98,16.04-4.25,21.27-15.91,3.12-.28,6.59-.6,9.71-.88,5.89-.54,13.96,3.62,14.65,11.25,1.13,12.48-42.9,70.31-40.41,97.7.41,4.51,2.14,8.19,5.61,7.88,7.28-.66,34.6-15.38,38.89-18.21,3.53.38,6.02,4.7,6.4,8.86.28,3.12-.19,5.61-1.42,7.47-.85,2.17-31.45,34.67-58.15,37.09-16.99,1.54-30.76-15.38-31.83-27.17Z"/>
      </g>
      <g>
        <path class="cls-4" d="m39.52,391.65c-.91-10.05,7.28-69.87,64.49-75.06,24.27-2.21,39.8,22.6,43.99,30.26,16.29-28.39,29.59-39.74,57.68-42.29,26.35-2.39,41.47,17.9,43.24,37.32,3.31,36.4-34.67,68.51-70.88,81.59,33.5,3.25,55.72,16.96,58.08,42.96,3.78,41.6-32.62,87.2-90.17,92.43-26.69,2.43-43.33-11.44-50.17-21.31,0,0-8.45,22.44-8.79,22.47-6.49,1.64-11.98,2.84-20.64,3.62-8.67.79-17.58-1.2-18.34-9.52-1.64-18.03,64.59-185.53,62.92-203.9-.35-3.81-3.4-6.68-7.56-6.3-18.37,1.67-34.35,37.37-41.98,61.14-6.37-.82-20.83-2.3-21.84-13.4Zm72.64,95.46c3.69-1.73,18.5-7.97,28.55-8.89,7.28-.66,15.35,3.5,16.17,12.51.16,1.73-.41,3.18-1.61,5.39-20.96,4-29.12,18.03-28.37,26.35.85,9.36,7.91,13.96,18.31,13.02,23.92-2.17,48.19-31.29,45.7-58.68-1.17-12.83-13.74-31.96-36.27-29.91-32.24,2.93-43.9,32.3-42.49,40.21Zm21.47-59.97c30.51-2.77,77.59-57.73,75.01-86.16-.76-8.32-5.8-9.96-8.92-9.68-33.28,3.02-68.74,85.94-67.98,94.26.13,1.39.5,1.7,1.89,1.58Z"/>
        <path class="cls-4" d="m385.52,483.6c2.08-.19,3.31,5.64,3.4,6.68.69,7.63-2.87,14.59-6.81,17.4-1.29,1.17-3.66,2.08-5.74,2.27-9.01.82-20.93.5-25.91-4.29-10.94,18.12-21.37,37.94-48.41,40.4-32.24,2.93-53.2-23.83-55.37-47.75-3.56-39.17,22.13-102.68,68.24-106.86,23.57-2.14,47.46,14.56,49.6,38.14,1.35,14.91.53,36.65-6.59,50.58,4.57,4.13,15.85,5.2,23.83,4.48,1.73-.16,2.74-.6,3.75-1.04Zm-103.84,11.18c1.32,14.56,4.25,23.73,16.04,22.66,12.13-1.1,27.58-19.63,29.78-33.81-5.42-5.8-11.03-13.68-12.01-24.43-.98-10.75,3.31-25.12,14.4-26.12,3.12-.28,5.26.22,6.33.47-.72-7.97-7.66-15.03-18.75-14.03-20.45,1.86-38.7,43.36-35.81,75.26Z"/>
        <path class="cls-4" d="m439.97,498.22c-6.49,13.17-20.86,35.8-37.85,37.34-10.05.91-27.01-12.58-28.61-30.26-2.77-30.51,16.58-63.72,28.21-112.67,3.72-1.39,12.98-3.28,23.04-4.19,7.28-.66,14.94-1.01,15.6,6.27.41,4.51-35.59,81.53-33.6,99.52.44,4.85,4.19,7.66,8.35,7.28,15.95-1.45,30.82-41.6,52.32-116.6,3.37-1.36,12.98-3.28,23.04-4.19,6.93-.63,14.97-.66,15.6,6.27.54,5.89-34.45,74.79-32.03,101.48.31,3.47,4.03,5.92,7.5,5.61,10.4-.95,26.25-14.97,30.54-17.8,3.53.38,6.02,4.7,6.4,8.86.28,3.12-.22,5.26-1.42,7.47-.91,1.48-23.51,33.59-50.21,36.02-13.17,1.2-24.58-16.64-26.88-30.41Z"/>
        <path class="cls-4" d="m506.47,491.48c-2.55-28.08,19.92-80.8,39.02-143.71,7.82-25.53,16.86-56.76,22.51-71.6,4-2.11,19.73-5.99,29.44-6.87,7.63-.69,11.25.73,11.63,4.89.5,5.55-67.83,169.04-64.71,203.37.66,7.28,3.44,10.87,8.98,10.37,13.52-1.23,27.26-15.41,31.2-18.21,3.88.35,6.02,4.7,6.4,8.86.28,3.12-.28,4.57-1.42,7.47-.54,1.8-26.25,34.19-48.06,36.52-13.52,1.23-32.62-5.08-34.98-31.08Z"/>
        <path class="cls-4" d="m656.19,489.06c-3.97,6.3-20.68,26.35-32.46,27.42-12.83,1.17-38.57-5.23-42.1-44.06-4.47-49.23,32.81-104.34,68.17-107.56,12.83-1.17,22.85,5.26,26.38,13.33l31.3-117.14c3.69-1.73,13.33-3.31,23.04-4.19,7.28-.66,15.29-1.04,15.92,5.9.41,4.51-61.69,171.28-58.85,202.48.54,5.89,4.88,7.6,9.39,7.19,9.01-.82,24.02-12.67,28.3-15.5,3.53.38,6.02,4.7,6.4,8.86.28,3.12-.54,5.64-1.42,7.47-2.43,4.07-21.72,34.13-53.26,37-10.75.98-15.98-10.43-20.8-21.18Zm-33.41-2.21c19.07-1.73,46.39-66.43,44.57-86.54-.41-4.51-3.31-9.49-9.9-8.89-16.64,1.51-46.65,48.28-43.59,81.91.82,9.01,4.41,13.93,8.92,13.52Z"/>
        <path class="cls-4" d="m757.55,462.03c1.17,12.83,11.85,15,25.72,13.74,25.65-2.33,48.66-26.09,52.95-28.93,3.18.41,5.67,4.73,6.05,8.89.28,3.12-.22,5.26-1.42,7.47-1.86,2.62-26.41,36.3-60.39,39.39-33.63,3.06-55.47-21.87-57.7-46.49-4.38-48.19,25.85-100.22,58.78-103.21,24.96-2.27,40.37,17.3,41.76,32.56,2.61,28.77-20.14,66.84-43.37,68.95-4.16.38-18.97-4.92-21.4-8.54-.85,2.17-1.36,12.01-.98,16.17Zm5.77-44.21c.54,5.89,2.9,8.82,8.79,8.29,11.79-1.07,24.96-21.49,23.67-35.71-.72-7.97-3.53-11.91-8.73-11.44-10.75.98-25.15,23.26-23.73,38.86Z"/>
        <path class="cls-4" d="m870.46,462.26c-1.2-13.17,17.05-54.68,32.53-80.55-6.11,1.95-23.04,4.19-27.54,4.6-8.73,38.54-27.64,68.92-36.15,79.13-4.76,5.33-15.1-4.57-15.41-8.04-.41-4.51,18.03-17.02,31.77-77.34-1.23-1.99-4.41-6.24-5.26-15.6-2.33-25.65,18.53-42.23,28.93-43.17,8.32-.76,12.83,2.68,13.49,9.96.57,6.24-2.52,6.87-1.99,12.76.6,6.59,7.28,10.87,14.91,10.18,10.75-.98,16.04-4.25,21.27-15.92,3.12-.28,6.59-.6,9.71-.88,5.89-.54,13.96,3.63,14.65,11.25,1.13,12.48-42.9,70.31-40.41,97.69.41,4.51,2.14,8.19,5.61,7.88,7.28-.66,34.6-15.38,38.89-18.21,3.53.38,6.02,4.7,6.4,8.86.28,3.12-.19,5.61-1.42,7.47-.85,2.18-31.45,34.67-58.15,37.09-16.99,1.54-30.76-15.38-31.83-27.17Z"/>
      </g>
    </g>
    <g>
      <path class="cls-3" d="m522.59,600.89c-.86.08-2.66-.73-2.81-2.44-.2-2.25.41-3.81,1.02-5.38,1.6-.25,4.15-.59,7.02-1.18,4.4-10.97,8.62-21.5,10.33-26.41,2.02-.29,5.28-1.24,7.75-1.46,2.46-.22,3.94.61,4.11,2.43.05.54-5.12,11.36-10.49,23.51.64-.06,1.39-.13,1.93-.18,3.32-.3,5.21.28,5.32,1.57.12,1.28-.31,3.7-.67,4.49-2,.5-6.12,1.53-10.25,2.44-4.33,10.54-7.82,20.78-7.41,25.38.14,1.5.79,2.73,4.75,2.37,3.53-.32,10.58-5.92,11.9-6.8,1.09.12,1.86,1.45,1.98,2.73.09.96-.06,1.73-.54,2.42-.85,1.37-9.5,11.87-20.2,12.84-5.46.5-9.95-5.03-10.28-8.67-.32-3.53,3.68-15.33,8.36-27.95-.74.17-1.27.22-1.81.27Z"/>
      <path class="cls-3" d="m555.76,623.99c-.37-4.07,5.26-16.88,10.04-24.87-1.89.6-7.11,1.29-8.5,1.42-2.7,11.9-8.53,21.28-11.16,24.43-1.47,1.64-4.66-1.41-4.76-2.48-.13-1.39,5.57-5.25,9.81-23.88-.38-.61-1.36-1.93-1.62-4.82-.72-7.92,5.72-13.04,8.93-13.33,2.57-.23,3.96.83,4.16,3.08.18,1.93-.78,2.12-.61,3.94.18,2.03,2.25,3.36,4.6,3.14,3.32-.3,4.95-1.31,6.57-4.91.96-.09,2.03-.18,3-.27,1.82-.17,4.31,1.12,4.52,3.47.35,3.85-13.24,21.71-12.47,30.16.13,1.39.66,2.53,1.73,2.43,2.25-.2,10.68-4.75,12.01-5.62,1.09.12,1.86,1.45,1.98,2.73.09.96-.06,1.73-.44,2.31-.26.67-9.71,10.7-17.95,11.45-5.24.48-9.5-4.75-9.83-8.39Z"/>
      <path class="cls-3" d="m603.56,620.4c-1.23,1.95-7.26,10.37-10.9,10.7-3.96.36-10.06-2.65-11.08-13.88-1.38-15.2,9.84-33.05,20.75-34.04,3.96-.36,7.11,2.27,8.54,6.13l1.54-5.64c.62-.27.93-.41,9.39-1.18.96-.09,1.68.71,1.79,1.89.13,1.39-9.42,24.6-8.88,30.59.17,1.82,1.51,2.34,3.01,2.21,4.17-.38,8.33-4.53,9.65-5.41,1.09.12,1.86,1.45,1.97,2.73.07.75-.07,1.62-.44,2.31-.63,1.35-8.28,11-15.13,11.62-3.85.35-8.04-2.94-10.23-8.03Zm-8.1,1.06c7.39-.67,13.3-21.06,12.74-27.27-.13-1.39-1.03-3.04-3.06-2.85-5.14.47-13.37,15.57-12.42,26.06.25,2.78,1.25,4.2,2.74,4.07Z"/>
      <path class="cls-3" d="m626.26,611.32c-1.59-17.55,8.69-31.44,18.64-32.34,7.49-.68,12.33,3.84,12.78,8.88.32,3.53-2.08,9.14-3.47,11.65-.84.29-2.33.43-3.19.5-3.1.28-5.64-.35-5.82-2.28-.21-2.35,2.76-7.59,2.56-9.84-.11-1.18-.58-1.67-1.44-1.6-7.38.67-8.89,17.32-8.22,24.7.44,4.82,1.71,6.97,4.92,6.67,9.2-.84,16.75-8.1,18.07-8.98,1.09.12,1.86,1.45,1.98,2.73.09.96-.17,1.74-.44,2.31-.96,1.27-7.82,11.29-18.2,12.23-4.39.4-17.23-4.37-18.16-14.64Z"/>
      <path class="cls-3" d="m678.22,615.56c-.4-2.01-1.01-5.2-1.6-8.06-.69-2.85-2.53-6.46-5.04-6.77-.43,1.23-3.61,10.15-3.11,21.54-.72.39-3.89,1.11-5.18,1.23-2.89.26-5.56-.57-5.76-2.82-1.1-12.09,15.34-62.79,19.45-73.31,1.25-.55,6.27-2.3,9.26-2.57,1.82-.17,3.68.1,3.88,2.34.17,1.93-7.85,18.09-17.64,48.11,9.44-5.39,14.34-13.17,15.81-19.57,1.02-.63,4.16-1.67,5.45-1.79,4.07-.37,5.81-.2,7.27,1.61-.61,5.13-13.42,16.22-19.27,19.56,9.19,3.7,5.71,15.34,10.85,14.88,3.1-.28,6.66-3.95,7.98-4.83,1.09.12,1.86,1.45,1.98,2.73.09.96-.08,1.52-.44,2.31-.17.55-7.21,10.91-14.49,11.57-4.28.39-8.64-2.45-9.41-6.16Z"/>
      <path class="cls-3" d="m764.25,567.17c-4.07.37-6.76.4-6.93-1.42-.24-2.68,4.03-5.55,3.81-7.9-.12-1.29-1.36-1.93-2.65-1.81-4.92.45-11.56,9.36-11.15,13.85.17,1.82,1.26,3.23,3.4,3.04,1.39-.13,5.12-.68,6.72-.83,1.71-.16,2.75.61,2.86,1.79.11,1.18-.93,3.97-1.21,4.53-2.88.37-6.4.8-10.02,2.53-7.55,3.6-14.78,10.73-13.96,19.72.55,6.1,2.69,10.65,11.47,9.86,8.78-.8,12.07-9.73,11.62-12.28-1.49,1.43-5.55,3.09-8.11,3.33-2.57.23-4.61-.88-4.91-4.19-.4-4.39,5.09-11.69,12.26-12.34,1.93-.17,4.12.17,5.01.52,2.68-4.99,8.58-12.43,14.79-13,4.17-.38,7.55,2.33,7.84,5.55.27,3-1.6,10.94-4.59,11.21-.21.02-.35-.29-.37-.51-.18-2.03-2.75-4.17-5.64-3.91-3,.27-5.04,1.54-6.45,3.82.89,1.43,1.31,2.58,1.55,5.15.81,8.88-8.49,21.81-23.26,23.15-12.84,1.17-22.37-6.28-23.17-15.16-1.16-12.74,10.99-22.8,17.32-24.34-2.68-.94-5.29-2.43-5.71-7.03-.93-10.28,10.21-21.86,20.27-22.78,8.24-.75,14.65,4.5,15.19,10.38.19,2.03-1.35,6.49-3.01,8.48-.73.28-1.79.49-2.97.59Z"/>
      <path class="cls-3" d="m829.06,600.02c-1.83.06-4.2-1.13-5.58-2.08,2.31,19.43-3.17,38.7-13.98,39.69-5.67.52-11.08-4.39-11.69-13.5-1.11-13.39,7.47-32.94,8.56-36.39-.73-.9-2.41-2.8-2.65-5.37-.19-2.14.21-6.06,6.68-7.3,2-5.25,13.33-39.74,15.47-42.3,2-.51,5.69-1.49,8.15-1.71,2.14-.19,3.49.44,3.66,2.26.4,4.39-6.02,13.28-18.67,48.64,1.3,2.47,2.3,5.19,3.12,8.24,2.66,1.92,5.18,2.34,7,2.17,1.2-7.02,4.9-16.2,9.57-28.93,1.25-.54,3.23-1.26,5.91-1.51,3.64-.33,6.13-.23,6.28,1.37.26,2.89-12.04,24.29-11.31,32.32.1,1.07,1.38,2.14,2.77,2.01,3.42-.31,9.09-5.68,10.41-6.56.98.13,1.77,1.67,1.89,2.96.09.96-.07,1.62-.44,2.31-.46.91-7.63,11.05-14.59,11.69-4.39.4-9.27-3.47-10.55-8Zm-22.59,26.87c.2,2.25,1.22,2.7,2.61,2.57,3.53-.32,9.12-12.48,7.72-27.89-.25-2.78-.8-6.4-1.37-7.97-3.44,6.14-9.32,29.23-8.95,33.29Zm50.3-80.65c.26,2.89-2.39,10.47-8.17,10.99-3.32.3-5.65-1.64-5.94-4.86-.48-5.24,3.82-11.35,8.21-11.75,3.32-.3,5.63,2.62,5.91,5.61Z"/>
      <path class="cls-3" d="m862.61,592.87c.36,3.96,3.66,4.63,7.94,4.24,7.92-.72,15.02-8.06,16.35-8.93.98.13,1.75,1.46,1.87,2.74.09.96-.07,1.62-.44,2.31-.57.81-8.15,11.21-18.64,12.16-10.38.94-17.12-6.75-17.81-14.35-1.35-14.88,7.98-30.94,18.15-31.86,7.71-.7,12.46,5.34,12.89,10.05.81,8.88-6.22,20.64-13.39,21.29-1.29.12-5.86-1.52-6.61-2.64-.26.67-.42,3.71-.3,4.99Zm1.78-13.65c.17,1.82.9,2.72,2.71,2.56,3.64-.33,7.71-6.63,7.31-11.02-.22-2.46-1.09-3.68-2.69-3.53-3.32.3-7.76,7.18-7.33,12Z"/>
      <path class="cls-3" d="m885.16,592.87c-.79-8.67,6.15-24.95,12.05-44.37,2.41-7.88,5.21-17.52,6.95-22.1,1.24-.65,6.09-1.85,9.09-2.12,2.35-.21,3.47.22,3.59,1.51.16,1.71-20.94,52.19-19.98,62.78.2,2.25,1.06,3.36,2.77,3.2,4.17-.38,8.42-4.76,9.63-5.62,1.2.11,1.86,1.45,1.97,2.73.09.96-.09,1.41-.44,2.3-.17.55-8.11,10.56-14.84,11.28-4.17.38-10.07-1.57-10.8-9.59Z"/>
      <path class="cls-3" d="m931.39,592.13c-1.23,1.95-6.38,8.13-10.02,8.46-3.96.36-11.91-1.62-13-13.6-1.38-15.2,10.13-32.21,21.05-33.21,3.96-.36,7.05,1.62,8.14,4.12l9.66-36.16c1.14-.54,4.12-1.02,7.11-1.29,2.25-.2,4.72-.32,4.91,1.82.13,1.39-19.04,52.88-18.17,62.51.17,1.82,1.51,2.34,2.9,2.22,2.78-.25,7.41-3.91,8.74-4.79,1.09.12,1.86,1.45,1.97,2.73.09.96-.17,1.74-.44,2.31-.75,1.26-6.7,10.54-16.44,11.42-3.32.3-4.93-3.22-6.42-6.54Zm-10.31-.68c5.89-.54,14.32-20.51,13.76-26.72-.13-1.39-1.02-2.93-3.06-2.74-5.14.47-14.4,14.91-13.46,25.29.25,2.78,1.36,4.3,2.75,4.17Z"/>
    </g>
  </g>
</svg>