<?xml version="1.0" encoding="UTF-8"?>
<svg id="Layer_2" data-name="Layer 2" xmlns="http://www.w3.org/2000/svg" viewBox="0 0 379.92 258.68">
  <defs>
    <style>
      .cls-1 {
        fill: #f8f7db;
      }

      .cls-2 {
        fill: #342765;
      }

      .cls-3 {
        fill: #efb02d;
      }

      .cls-4 {
        fill: #f6f5cc;
      }
    </style>
  </defs>
  <g id="Layer_1-2" data-name="Layer 1">
    <path class="cls-3" d="M113.81,13.69c-4.58-3.66-11.76-1.73-14.81-.96-22.88,5.8-24.22-.54-41.91,6.7-11.13,4.55-18.21,10.15-29.13,18.85-2.33,1.86-4.46,4.06-8.72,8.48-4.21,4.37-5.49,6.12-5.61,8.48-.14,2.72,1.32,4.94,2.63,6.93,1.6,2.43,2.54,2.59,5.97,6.57,2.33,2.7,2.2,2.98,3.46,4.3,1.72,1.8,4.56,4.03,9.43,5.49-1.01.02-3.95.23-6.69,2.39-.36.28-4.14,3.36-4.18,7.76-.02,2.73,1.41,3.08,2.15,7.64.49,3.03-.03,3.55.6,4.9,1.44,3.07,5.85,3.87,8.48,4.3,15.44,2.52,27.1,2.27,27.1,2.27,3.57-.08,10.13-.32,13.97,1.67.44.23,1.81.99,3.82,1.43,2.03.45,3.77.37,4.9.24-15.31,2.63-27.19,1.76-35.46.36-5.09-.86-13.53-2.72-25.07-2.51,0,0-5.75.11-16.96,3.58-3.66,1.14-6.94,2.41-7.64,5.01-.47,1.75.41,3.38.84,4.18,2.66,4.98,4.57,10.33,7.28,15.28,6.17,11.25,5.27,15.92,10.75,18.99,2.62,1.47,5.26,1.77,5.49,1.79,1.93.2,4.57-.54,9.79-2.03,6.38-1.82,7.12-2.05,8.48-2.63,3.51-1.5,5.83-3.1,6.57-3.58,8.26-5.36,26.13-4.63,31.28-4.42,17.36.71,22.3,4.59,29.85,2.99.89-.19,3.54-.82,5.97.48,2.62,1.41,3.75,4.42,4.3,6.69-3.72.03-6.73.15-8.72.24-6.64.31-7.88.66-11.34.36-4.27-.37-4.54-1.08-7.64-1.07-4.71.01-8.17,1.67-9.55,2.27-12.9,5.61-35.93,2.84-45.49,10.63-1.08.88-2.25,2.11-2.63,3.82-.79,3.58,2.34,7.07,4.18,9.07,20.19,21.99,25.39,24.01,29.49,24.48,3.85.44,7.4-.12,7.4-.12,3.79-.6,5.27-1.7,8.96-2.99,5.77-2.01,6.58-.84,13.73-2.63,5.28-1.32,4.41-1.84,11.34-3.94,2.87-.87,3.19-.87,15.76-3.1,3.37-.6,2.64-.49,12.9-2.39,35.58-6.57,40.98-5.42,64.24-10.51,3.84-.84,3.7-.89,6.17-1.37,9.54-1.89,19.96-3.85,31.32-1.01,4.84,1.21,9.98,3.32,9.79,4.3-.18.91-4.89.19-11.7.6-8.54.51-19.79,1.18-24,8.24-2.62,4.39-1.36,9.31-1.21,9.87,1.41,5.19,6.14,7.8,15.53,12.81,9.92,5.29,15,7.92,21.01,6.81,3.35-.62,2.92-1.58,10.51-4.18,3.79-1.3,8.03-2.75,13.49-3.46,6.84-.89,7.73.39,14.69-.72,3.52-.56,6.56-1.05,10.15-2.87,3.45-1.75,9.33-4.64,10.15-9.67.56-3.45-1.52-6.89.72-9.91.57-.77,1.16-1.15,1.43-1.31,2.56-1.49,6.59-.38,8.36,2.15.2.28.65.94.84,1.91.44,2.25-.94,4.12-1.67,5.37-2.77,4.71-2.88,11.51-.36,15.28.53.79,1.18,1.46,2.27,2.27,11.21,8.31,32.36,3.99,39.04,1.79.98-.32,2.62-.92,4.06-2.39,2.77-2.83,2.82-6.88,2.87-8.48.44-15.18,6.4-19.01,3.46-31.76-.7-3.03-2.25-9.44-7.28-15.4-4.78-5.67-11.23-9.17-24-16.12-4.6-2.5-7.59-3.93-10.51-7.52-2.83-3.47-6.27-9.8-3.94-13.97.73-1.31,2.24-2.79,4.06-2.87,2.49-.1,4.31,2.5,4.9,3.34,2.74,3.93,1.06,6.88,2.63,10.87,1.73,4.42,6.04,6.52,9.31,8.12,1.59.78,10.91,5.32,20.9.72,1.08-.5,8.31-3.97,11.7-12.3,2.51-6.18,2.95-15.13-1.55-19.82-.8-.83-2.45-2.56-5.01-3.1-2.07-.44-4.6-.09-6.39.16-2.3.32-2.99.66-3.88.2-1.17-.61-1.65-2.06-2.03-4.3-.96-5.7.25-7.57-.48-10.63-.85-3.59-3.65-5.74-5.97-7.52-5.97-4.58-12.84-4.66-15.52-4.66-6.58.02-6.58,2.17-18.03,3.58-5.12.63-7.75.93-11.34.24-4.51-.87-5.26-2.29-8.72-2.03-3.87.3-5.43,2.27-8.84,1.67-2.34-.41-3.71-1.7-4.54-2.27-6.05-4.15-19.74,4.25-26.27,7.4-16.04,7.73-32.71,4.89-41.79,3.34-2.96-.5-14.35-5.76-37.01-16.24-8.03-3.71-20.12-9.34-34.03-16.24-19.82-9.82-16.87-9.09-18.51-9.55-3.05-.86-8.35-2.01-11.34-6.33-.51-.73-1.74-2.56-1.79-5.01-.05-2.69,1.37-3.45,2.51-6.57.14-.38,2.25-6.44-.36-12.42-.49-1.12-1.41-3.23-3.34-4.78Z"/>
    <path class="cls-3" d="M287.3,61.09c1.36-8.55,2.42-15.19,1.19-23.64-.55-3.78-2-13.05-8.6-22.45-3-4.28-8.4-11.98-17.79-14.33-3.37-.84-6.07-.7-7.76-.6-20.46,1.23-30.68,1.85-36.54,2.63-9.39,1.24-21.96,2.91-37.97,2.63-11.63-.2-23.24,1.6-34.87,1.43-2.64-.04-9.28-.18-13.37,4.18-1.23,1.31-1.91,3.16-3.22,6.81-2.84,7.9-3.3,12.82-3.82,19.1-.23,2.77-.25,4.52.84,6.09.95,1.37,1.99,1.49,6.21,3.58,5.48,2.71,6.28,3.77,6.69,4.54,1.19,2.26.42,4.8.24,5.49-11.53,44.13,1.01,91.23.36,136.84.35,11.48-1.43,14.93-1.43,14.93-.64,1.23-1.62,3.13-3.7,4.54-2.86,1.93-5.06,1.1-7.04,2.87-1.88,1.67-2.04,4.3-2.15,6.57-.73,15.14-1.04,22.79,2.03,26.39,2.61,3.06,5.88,4.36,6.69,4.66,4.01,1.5,7.33.83,10.27.6,7.23-.57,11.36,1.59,17.31,2.99,18.63,4.38,46.91-.57,56.6-2.27,15-2.63,17.35-4.71,25.55-3.7,4.51.55,9.6,1.9,15.28-.6,2.89-1.27,4.68-3.12,8.24-6.81,1.99-2.06,7.25-7.76,12.66-17.67,0,0,2.8-5.13,4.78-10.03,10.08-24.97-9.58-107.02-.48-137.91.39-1.31,2.38-7.82,3.82-16.84ZM199.93,68.65c.46-5.69,1.01-6.94,2-7.82,1.53-1.35,3.23-1.06,6.87-1.11,5.31-.07,18.1-.91,22.03-1.28.62-.06,2.14-.21,3.1.72,1.05,1.01.88,2.76.78,3.67-.87,7.43-3.12,12.1-3.12,12.1-3.13,6.47-4.69,9.71-8.28,12.17-4.1,2.81-8.26,3.18-9.71,3.28-2.59.2-5.65.43-8.53-1.41-3.14-2.01-4.2-5.29-4.93-7.54-.98-3.03-.72-6.28-.2-12.77ZM262.8,205.72c-4.49,3.29-9.18-3.95-26.15-2.75-4.34.31-13.01,1.34-20.6,1.37-2.54.01-4.54-.09-9.67-.12-1.59,0-3.19-.3-4.78-.18-1.3.1-2.25.29-3.04-.3-.81-.6-1-1.65-1.07-2.21-.78-5.48.82-15.51.84-15.58.66-4.15.36-3.44.9-6.57.32-1.88,2.27-13.4,5.01-17.97,5.87-9.77,30.61-13.15,46.45-1.49,17.33,12.76,19.73,40.22,12.12,45.79Z"/>
    <path class="cls-2" d="M283.42,168.97c-7.03-33.67-35.16-50.41-40.12-53.25,7.23-3.62,17.98-10.35,26.69-22.33,13.08-17.99,19.73-45.29,9.07-66.99-1.81-3.68-7.79-15.86-20.36-20.66-7.11-2.71-13.1-1.83-20.78-.9-18.87,2.29-37.82,3.62-48.66,3.94,0,0-30.27.89-47.58,5.25-1.69.43-5.02,1.35-7.28,4.24-1.19,1.51-1.3,2.58-2.53,12.09-.91,7.03-1.21,9.29.2,11.91.39.71,1.23,2.23,2.93,3.4,3.2,2.22,5.96.82,8,2.51,2.43,2.02,1.66,6.63,1.49,7.82-2,14.48,5.15,108.75,2.03,150.99-.13,1.77-.3,3.72-1.61,5.61-2.61,3.76-6.73,2.97-10.81,7.28-.67.71-2.04,2.19-2.93,4.48-1.6,4.14.1,6.57,1.01,13.91.99,7.9-.39,9.73,1.43,11.16,2.15,1.68,4.69-.37,13.01-.54.88-.02,1.57,0,7.34.36,6.11.39,9.17.58,15.58,1.07,8.4.64,12.92,0,24.6-.36,0,0,49.45-1.54,59.4-4.27,1.54-.42,2.93-1.1,2.93-1.1,0,0,1.76-.85,3.34-2.15,1.45-1.18,32.22-32.11,23.58-73.49ZM199.98,68.37c.46-5.69,1.01-6.94,2-7.82,1.53-1.35,3.23-1.06,6.87-1.11,5.31-.07,18.1-.91,22.03-1.28.62-.06,2.14-.21,3.1.72,1.05,1.01.88,2.76.78,3.67-.87,7.43-3.12,12.1-3.12,12.1-3.13,6.47-4.69,9.71-8.28,12.17-4.1,2.81-8.26,3.18-9.71,3.28-2.59.2-5.65.43-8.53-1.41-3.14-2.01-4.2-5.29-4.93-7.54-.98-3.03-.72-6.28-.2-12.77ZM262.8,205.72c-4.49,3.29-9.18-3.95-26.15-2.75-4.34.31-13.01,1.34-20.6,1.37-2.54.01-4.54-.09-9.67-.12-1.59,0-3.19-.3-4.78-.18-1.3.1-2.25.29-3.04-.3-.81-.6-1-1.65-1.07-2.21-.78-5.48.82-15.51.84-15.58.66-4.15.36-3.44.9-6.57.32-1.88,2.27-13.4,5.01-17.97,5.87-9.77,30.61-13.15,46.45-1.49,17.33,12.76,19.73,40.22,12.12,45.79Z"/>
    <path class="cls-3" d="M224.31,116.79c6.58-1.34,30.2-6.98,43.97-28.48,15.52-24.23,13.35-60.5-3.4-71.91-5.98-4.08-13.29-4.54-27.9-5.46-5.89-.37-5.1.08-30.09,1.39-15.16.8-30.25,4.45-45.4,3.58-.41-.02-1.79-.12-3.36.49-1.85.72-3.69,2.31-4.57,4.48-.57,1.4,0,1.28-.49,6.18-.22,2.22-.4,2.88-.13,4.12.16.77.54,2.56,1.88,3.67,2.24,1.86,4.69-.26,7.52,1.34,2.12,1.2,2.87,3.58,3.31,4.97,1.28,4.04.06,7.76-.09,8.28-1.32,4.55-1.33,40.96,1.84,145.07.37,5.44-.89,9.39-1.79,11.55-.89,2.15-2.52,6.07-5.15,6.36-.98.11-1.71-.33-3.49-.04-.64.1-1.94.31-2.96,1.03-1.28.9-1.31,2.05-2.56,7.72-.74,3.38-1,4.22-.67,5.67.16.7.61,2.62,2.15,3.45.8.43,1.41.3,3.85.22,1.33-.04,2.66.03,3.99-.02,4.3-.16,28.52,1.2,36.13,1.5,28.24,1.1,43.02-4.08,54.99-3.22.73.05,2.77.22,5.19-.54,0,0,5.36-1.67,9.31-8.24,5.13-8.51,9.76-45.26-14.51-77.91-4.98-6.7-13.59-16.47-27.58-25.25ZM199.93,68.65c.46-5.69,1.01-6.94,2-7.82,1.53-1.35,3.23-1.06,6.87-1.11,5.31-.07,18.1-.91,22.03-1.28.62-.06,2.14-.21,3.1.72,1.05,1.01.88,2.76.78,3.67-.87,7.43-3.12,12.1-3.12,12.1-3.13,6.47-4.69,9.71-8.28,12.17-4.1,2.81-8.26,3.18-9.71,3.28-2.59.2-5.65.43-8.53-1.41-3.14-2.01-4.2-5.29-4.93-7.54-.98-3.03-.72-6.28-.2-12.77ZM262.8,205.72c-4.49,3.29-9.18-3.95-26.15-2.75-4.34.31-13.01,1.34-20.6,1.37-2.54.01-4.54-.09-9.67-.12-1.59,0-3.19-.3-4.78-.18-1.3.1-2.25.29-3.04-.3-.81-.6-1-1.65-1.07-2.21-.78-5.48.82-15.51.84-15.58.66-4.15.36-3.44.9-6.57.32-1.88,2.27-13.4,5.01-17.97,5.87-9.77,30.61-13.15,46.45-1.49,17.33,12.76,19.73,40.22,12.12,45.79Z"/>
    <path class="cls-2" d="M256.37,51.66c-.85-6.1-1.33-9.47-3.34-12.54-2.78-4.22-7.5-6.34-14.81-8-14.43-3.27-28.96-2.46-40.36-.72-5.06,1.41-5.85,2.03-5.85,2.03-2.23,1.49-2.37,5.34-2.39,6.33-.29,17.24-3.86,34.34-3.97,51.58-.02,3.32-.06,8.42,3.38,11.7,2.63,2.51,6.12,2.83,8.72,2.99,16.57.98,27.56-2.22,27.56-2.22,17.53-5.1,27-13.72,28.32-17,1.55-3.86,2.39-8.24,2.39-8.24,0,0,0,0,0,0,.89-4.48.93-7.86.96-13.13.03-4.83.04-8.21-.6-12.78ZM234.71,62.82c-.87,7.43-3.12,12.1-3.12,12.1-3.13,6.47-4.69,9.71-8.28,12.17-4.1,2.81-8.26,3.18-9.71,3.28-2.59.2-5.65.43-8.53-1.41-3.14-2.01-4.2-5.29-4.93-7.54-.98-3.03-.72-6.28-.2-12.77.46-5.69,1.01-6.94,2-7.82,1.53-1.35,3.23-1.06,6.87-1.11,5.31-.07,18.1-.91,22.03-1.28.62-.06,2.14-.21,3.1.72,1.05,1.01.88,2.76.78,3.67Z"/>
    <path class="cls-3" d="M238.7,58.47c-.25-2.79-.74-3.8-1.43-4.54-2.59-2.74-6.64-.08-16.72.48-5,.28-18.7.44-20.38.08-.19-.04-1.31-.32-2.42.16,0,0,0,0,0,0-.57,2.46-1.3,6.18-1.67,10.75-.86,10.61-1.78,22.09,4.66,26.87,4.01,2.97,9.51,2.32,18.87,1.19,2.05-.25,3.84-.59,5.73-1.67,3.08-1.76,4.62-4.44,6.69-8.84,7.19-15.31,6.92-21.94,6.69-24.48ZM234.71,62.82c-.54,4.31-1.53,7.34-1.53,7.34-.44,1.34-1.09,3.07-2.06,5.01-.64,1.9-1.79,4.58-3.91,7.31-1.44,1.85-3.53,4.54-7.26,6.16-3.16,1.37-6.02,1.34-8.3,1.31-2.7-.04-4.91-.49-6.41-.89-.74-.65-1.54-1.47-2.3-2.48-2.29-3.06-2.97-6.26-3.19-8.15-.14-1.52-.24-3.57-.11-6,.09-1.71.17-1.24.35-3.56,0,0,.46-6.22,1.54-7.63.02-.02.24-.27.4-.42.06-.05.13-.09.19-.14.05-.04.09-.07.14-.1,1.45-1.06,3.16-.83,6.54-.87.08,0,.18,0,.31,0,1.59-.03,2.89-.09,4.24-.15,8.16-.38,14.13-.66,16.51-1.04.03,0,.43-.03.96-.08.62-.06,2.14-.21,3.1.72.36.35.57.78.69,1.24,0,0,0,.02,0,.03.07.25.11.5.13.75,0,.01,0,.02,0,.03.02.26.02,1.02-.06,1.62Z"/>
    <path class="cls-2" d="M236.61,202.98c-7.16.51-9.69.79-20.6,1.37-7.57.4-6.1.05-8.49.34,0,0-1.83.22-5.19.09-1.83-.07-2.96-.22-3.81-1.02-.72-.68-.98-1.54-1.07-2.21-.78-5.48.82-15.51.84-15.58.66-4.15.36-3.44.9-6.57.32-1.88,2.27-13.4,5.01-17.97,4.8-7.99,22.21-11.7,37.06-6.42-9.65-11.07-22.38-19.38-30.13-21.44-3.45-.92-9.19-.69-20.66-.24-.93.04-2.82.14-3.82,1.43-1.25,1.62-.4,4.19-.14,5.03,3.49,11.23,5.94,49.26,2.77,58.02-.14.4-.77,2.02-.84,4.24-.04,1.29-.1,4.51,2.07,7.49,1.89,2.6,4.43,3.59,5.45,3.97,3.41,1.27,6.51.76,7.52.6,13.88-2.18,22.28,2.43,33.19-2.99,3.63-1.8,7.13-4.52,10.05-7.83-2.8-.41-6.11-.6-10.11-.31Z"/>
    <path class="cls-3" d="M215.49,204.24c-.62-.02-3.45-.11-7.48-.13-2.1-.01-4.79,0-7.93.04-.37-.04-.99-.16-1.48-.63-.66-.62-.73-1.52-.76-1.93-.28-4.17.09-8.64.09-8.64.33-3.97.15-4.67.63-8.28.1-.78.25-1.76.45-2.91,1.21-6.94,2.83-10.45,1.52-11.37-.07-.05-.2-.13-.41-.17-.45.62-.91,1.29-1.31,2.04-.27.5-1.03,4.05-2.56,11.14,0,0-1.59,7.39-1.62,19.31,0,1.23.02,3.15,1.31,4.54,1.42,1.52,3.59,1.56,6.69,1.55,9.46-.01,12.06-.24,12.06-.24,9.76-.85,9.71-.73,11.58-.96,4.1-.49,9.28-1.12,14.47-2.37,5.02-4.2,5.69-5.73,5.35-6.34-1.3-2.33-19.03,5.64-30.61,5.36Z"/>
    <path class="cls-2" d="M100.18,19.49s-2.02.77-7.7,2.31c-7.4,2-11.2.23-19.62.14-4.13-.04-10.88.08-18.41,3.29-4.26,1.81-13.81,5.88-17.33,13.87-.78,1.77-1.45,4.16-3.85,6.25-2.27,1.98-3.82,1.72-6.72,4.17-1.5,1.26-3.14,2.65-3.85,4.92-.76,2.43-.82,6.09,1.28,7.66,1.31.98,3.21.95,3.68.94,1.97-.03,2.65-.86,3.38-.4,1.14.72-.23,2.91.95,5.23,1.02,2,2.51,1.29,4.23,3.64,1.55,2.13,1.13,3.81,2.67,4.58,1.28.64,2.43-.27,2.88.33.48.64-.69,1.76-1.89,4.47-1.34,3.01-1.02,4.12-2.16,4.69-.5.25-1.61.25-3.83.16-1.2-.05-1.69-.17-2.26.19-.9.56-.63,1.45-1.62,2.27-.94.78-1.63.35-2.1.95-.95,1.21,1.1,4.35,1.44,4.86.91,1.39,2.6,3.88,6.13,5.64,1.4.7,2.62,1.05,11.04,1.84,7.12.67,7.55.53,9.61,1.1,3.7,1.02,4,1.89,7.66,2.75,2.86.67,5.02.69,8.89.72,3.28.03,4.01-.17,10.14-.3,4.62-.09,6.33-.02,8.22,1.05,1.17.66,3.77,2.5,3.44,3.99-.44,1.96-5.61,1.95-16.77,2.97-12.39,1.14-11.27,1.63-17.64,1.89-8.86.36-15.81-.39-20.27-.89-6.97-.78-15.27-2.19-24.79-.88-2.07.29-5.2.84-6.55,3.24-1.12,2-.82,4.95.63,6.84,2.23,2.92,6.59,2.59,6.62,3.92.01.71-1.21.76-2.48,2.14-1.66,1.81-2.31,4.71-1.45,7.07.19.53.8,2.19,2.32,2.88,1.25.57,2.04-.01,4.2-.15,1.63-.1,5.39-.04,5.98,1.42.55,1.36-2.25,2.59-1.99,4.85.24,2.09,2.89,3.38,3.9,3.87,2.26,1.1,4.42,1.08,5.62.98,4.63-.39,7.14-3.19,10.81-5.57,3.6-2.33,6.98-3.18,13.74-4.88,3.03-.76,7.19-1.55,22.28-1.4,0,0,29.38.23,41.07,5.14,4.88,2.05,5.46,4.47,5.56,4.97.3,1.54-.42,2.13-.18,3.52.54,3.16,7.59,3.88,7.53,4.88-.1,1.59-11.6,1.52-11.6,1.52-8.02.33-14.38.51-18.1.61-11.21.3-34.3.77-52.79,6.86-2.96.98-7.31,2.59-7.77,5.58-.4,2.58,2.14,6,5.14,6.98,3.01.99,5.68-.75,6.77.7.47.62.08,1.08.28,3.5.16,1.97.25,3.12.79,4.05,1.29,2.21,4.6,2.6,7.08,2.89,4.15.49,5.98-.51,7.16.83.58.65.31,1.08.88,4.22.49,2.73.72,4.09,1.24,4.71,2.08,2.49,7.54,1.05,8.41.82,2.93-.77,4.11-1.97,6.88-3.57,2.54-1.47,5.26-2.35,10.71-4.11,4.59-1.48,9.77-2.93,18.56-4.87,9.1-2.02,16.04-3.23,17.07-3.41,15.44-2.68,27.37-4.13,43.09-6.13,11.71-1.49,23.42-2.96,35.12-4.45,15.85-2.02,31.39-4.01,41.37,2.93,1.17.81,6.77,4.71,5.98,6.78-.42,1.11-2.54,1.27-3.67,1.34-12.36.79-19.08-1.28-26.52.84-1.69.48-9.37,2.67-10.37,7.92-.54,2.81.84,6.49,3.34,7.74,2.89,1.45,5.56-1.22,7.77.39,2.2,1.61.66,5.06,2.54,6.28,2.91,1.89,9.37-4.54,10.9-3.17,1.37,1.23-3.52,6.66-1.73,9.42,1.7,2.62,8.45,1.32,12.19.12,6.06-1.95,5.83-4.16,11.39-6.61,3.66-1.61,3.98-.75,20.75-3.15,4.46-.64,7.48-1.13,10.94-3.08,2.1-1.18,5.09-2.92,6.73-6.55.5-1.1,2.41-5.33.56-8.48-2.02-3.44-6.57-2.27-10.42-6.97-.8-.97-1.99-2.44-1.54-3.24.82-1.45,6.03,1.04,16.48,3.57,9.33,2.26,13.37,2.27,15.91,6.03.36.53,1.66,2.5,1.76,5.18.16,4.16-2.73,5.44-3.73,10.9-.38,2.08-.96,5.27.91,7.32,1.33,1.45,3.52,1.91,5.29,1.69,4.35-.55,6.66-5.63,7.56-5.13.87.5-1.89,4.98-.2,6.96,1.18,1.37,4.09,1,5.94.28,4.38-1.71,6.01-6.61,6.93-6.21.8.34-.94,3.82.73,5.83,1.48,1.79,4.68,1.3,5.29,1.21,3.03-.46,5.61-2.64,6.89-5.15,1.53-3.02.13-4.44.09-10.62-.03-5.07.89-9.26,2.13-14.93,1.2-5.5,1.77-5.92,1.72-8.46-.04-2.05-.49-5.9-3.79-10.9-4.83-7.33-10.83-9.65-23.21-17.6-16.29-10.45-17.95-14.15-18.6-16.06-2.43-7.06-.62-17.16,5.01-19.42,2.92-1.17,6.86-.22,9.21,1.91,2.57,2.34,1.84,4.83,4.69,12.53,1.5,4.07,2.26,6.1,3.45,7.42,4.46,4.93,12.92,5.02,18.61,3.25,1.78-.55,7.1-2.2,10.32-7.43.67-1.09,3.38-5.48,2-10.52-.76-2.78-2.97-6.49-5.8-6.7-1.33-.1-1.63.66-4.44,1.89-2.48,1.08-6.22,2.72-8.43,1.39-.69-.42-1.61-1.35-2.15-6.09-.75-6.52.58-8.12.08-11.82-.66-4.91-4.14-10.27-8.89-12.17-2.63-1.05-6.28-.37-13.47,1.05-6.11,1.2-7.88,3.01-12.45,2.84-3.89-.15-6.66-1.43-7.79-1.89-9.46-3.91-24.38-.73-31.39.65-30.83,6.07-46.94,9.24-64.88,5.85-7.77-1.47-15.2-4.68-30.07-11.09-19.38-8.36-15.58-9.18-40.45-20.98-9.13-4.33-16.87-11.16-25.61-16.22-1.02-.59-7.74-4.47-7.13-7.89.32-1.77,2.42-2.34,2.69-4.79.23-2.06-1.17-2.45-1.2-4.81-.03-2.93,2.1-3.6,1.9-5.95-.19-2.21-2.32-4.39-4.56-4.98-2.39-.64-3.94.79-8.88,2.68Z"/>
    <path class="cls-3" d="M91.97,50.58c.48-1.88,2.81-1.71,6.34-4.09,3.31-2.22,5.12-4.95,5.86-6.1,1.93-2.98,2.54-5.54,3.21-8.33,1.13-4.74.59-6.87-.09-7.34-.71-.49-1.53-.64-1.53-.64,0,0-.34-.06-.67-.06-1.25,0-3.47,2.65-4.07,3.27-.99,1.01-2.73,1.77-12.46.52-6.27-.81-5.64-1.13-9.18-1.46-6.79-.63-12.17.29-14.88.88-2.43.53-5.64,1.23-9.45,3.15-3.88,1.96-6.61,4.62-12.08,9.96-4.85,4.73-6.47,7.04-7.31,10.03-.43,1.53-1.12,3.99.1,5.59,1.69,2.23,5.85,1.16,10.35.76,10.61-.95,19.78,2.11,25.08,4.96,3.76,2.02,8.48,4.56,10.21,9.94,2.29,7.13-2.49,13.62-2.94,14.23-4.04,5.32-10.21,6.48-13.61,7.12-2.02.38-4.63.39-9.86.41-6.41.02-9.62.03-11.41-.17-3.74-.41-6.46-1.09-7.29.21-.41.64-.3,1.66.13,2.3.63.94,1.92,1.03,2.78,1.16,3.83.55,5.74.83,6.99.86,2.98.07,5.09.32,8.59.73,3.06.36,3.43.55,8.68,1.35,3.84.58,5.97.9,7.92,1.09,2.69.26,7.63.73,13.31-.46,3.14-.66,15.86-3.32,19.38-11.04.47-1.04,1.28-3.27,3.03-3.67,1.89-.43,3.81,1.53,4.14,1.88,1.03,1.05,2.11,2.86,1.57,3.58-.52.69-2.03-.3-2.92.49-1,.89.31,2.71-.54,4.2-.79,1.38-2.57.94-5.47,1.89-2.6.85-6.65,2.98-6.63,5.3.01,1.7,2.2,2.94,3.58,3.73,3.44,1.96,6.96,1.85,8.84,1.63,4.44-.83,8.08-1.06,10.73-1.09,3.95-.05,7.9.28,9.35-1.94.44-.68.48-1.35,1.34-2.14,1.31-1.21,3.02-1.29,3.8-1.33,1.68-.08,3.92.34,4.04,1.17.07.47-.62.58-.9,1.39-.49,1.44,1.17,2.6.86,3.68-.41,1.41-3.86,1.54-4.1,1.55-6.21.25-12.04,3.25-18.21,3.97-16.87,1.95-15.81,2.74-31.1,4.14-11.59,1.06-21.11,1.98-33.72,1.56-10.15-.34-15.23-.51-16.5-.69-4.51-.65-10.64-1.92-18.54-.73-1.9.29-5.12.73-5.29,1.94-.16,1.08,2.15,2.37,2.62,2.63,2.61,1.46,3.97.9,4.68,2.07.91,1.52-.74,3.66.34,4.61.47.41,1.02.21,1.48.81.35.45.36,1,.35,1.7-.01,1.57-.53,1.92-.27,2.45.34.68,1.53.74,3.33.8,2.72.09,3.13-.37,3.9.09.77.46,1.05,1.79,1.57,4.43.78,3.94.33,4.65.13,4.92-.73.97-1.96.95-2.01,1.64-.04.6.85,1.15,1.41,1.39,1.94.83,4.2-.25,5.35-.86,4.39-2.32,5.87-4.65,8.83-6.85,4.61-3.43,9.6-4.18,14.69-4.95,3.95-.6,6.96-.51,9.4-.44,17.05.55,24.09,1.24,24.09,1.24,16.27,1.6,25.22,2.47,36.81,2.16,8.29-.22,16.54-.28,23.07-3.62,8.14-4.16,9.93-5.87,9.93-5.87,1.94-1.85,3.17-3.66,5.45-3.81,1.81-.12,3.99.81,4.95,2.67,1.28,2.47-.33,5.17-.58,5.59-1.33,2.23-3.56,3.13-8.95,4.65-5.85,1.65-10.87,2.74-13.18,3.24-5.78,1.25-8.3,1.57-11.9,3.31-3.25,1.57-5.43,2.61-5.58,4.13-.14,1.35,1.18,4.34,21.51,11.11,22.24,7.4,33.36,11.11,43.05,9.99,2.92-.34,12.61-1.78,26.01-1.52.58.01,1.03.02,1.32.03,0,0,5.93.16,11.63-.07,1.43-.06,2.96-.15,4.71-.29,1.41-.11,5.62-.48,10.8-2.13,4.1-1.31,8.34-2.72,9.08-5.87.41-1.74-.4-3.32-.47-3.43-1.43-2.66-4.51-1.94-7.01-5.01-.56-.69-1.6-1.97-1.45-3.6.22-2.49,2.98-3.79,3.15-3.86,2.14-.97,4.27-.27,5.12.03,3.9,1.35,5.16,4.59,8.24,8.34,1.71,2.08,4.18,3.98,9.13,7.8,4.89,3.76,15.55,11.97,30.32,15.58,4.4,1.08,10.07,1.96,17.78,5.35,4.53,1.99,7.4,3.81,7.94,6.57.32,1.64-.51,3.57-2.31,7.36-2.57,5.43-4.2,7.37-3.29,9,.45.81,1.47,1.44,2.22,1.26,1.11-.26.89-2.01,2.61-3.85,1.05-1.12,2.24-1.63,3.01-1.97.93-.4,2.19-.95,3.84-.83,1.02.07,2.75.18,3.5,1.33,1.02,1.59-.66,3.57.57,5.04.13.16.62.75,1.18.68,1.03-.13.92-2.27,2.79-3.87.68-.58,1.36-.87,1.97-1.13,1.07-.45,1.98-.84,2.75-.53.49.19.85.64,1.48,2.45,1.19,3.45.97,5.05,2.17,5.73.47.26,1.13.31,1.64.08,1.84-.84,1.47-5.37,1.37-6.75-1.03-14.8,5.4-22.4-.06-32.77-3.93-7.46-11.59-11.78-16.96-14.8-4.36-2.46-6.41-2.79-11.75-6.23-5.93-3.82-9.32-6-12-10.3-1.12-1.8-5.41-9.2-2.99-17.97.48-1.73,2.33-8.42,8.71-11.73.93-.48,6.61-3.43,11.49-1.02,2.57,1.27,4.02,4.11,6.81,9.74,3.52,7.09,2.95,8.49,5.53,11.42,1.09,1.24,5.14,5.85,10.62,5.42,3.41-.26,5.51-2.34,9.56-6.36,2-1.99,2.68-3.2,2.43-4.31-.33-1.46-2.14-2.18-2.48-2.31-4.22-1.68-6.91,2.33-11.18,1.52-4.05-.77-7-5.44-7.9-8.93-1.04-4.01.78-5.14.05-10.67-.27-2.02-.73-5.53-3.39-8.09-3.78-3.63-9.48-2.97-10.63-2.83-2.88.34-2.96,1.2-7.51,2.41-.69.18-4.67,1.22-9.09,1.36-5.78.18-9.96-1.2-12.55-1.91-10.14-2.77-19.61-1.16-29.22.48-8.58,1.46-7.45,2.6-20.17,5.45-11.32,2.54-19.86,3.35-22.11,3.55-11.31,1.01-18.22,1.62-27.09-.29-9.19-1.98-15.64-5.79-22.1-9.22-1.95-1.04-3.27-1.82-5.26-2.98-12.36-7.22-13.99-9.63-25.11-16.31-6.6-3.96-5.89-3.18-11.51-6.77-5.78-3.69-10.96-7.45-15.61-10.83-4.89-3.55-10.65-5.78-15.6-9.27-.34-.24-1.38-.98-2.79-1.01-1.28-.02-2.31.56-3.27,1.23-3.69,2.58-4.94,5.53-8.54,7.61-.41.23-1.04.57-1.75.42-1.43-.32-2.64-2.56-2.23-4.19Z"/>
    <path class="cls-3" d="M181.52,171.13c.17,1.11-2.2,2.34-3,2.76-2.22,1.15-3.92,1.25-6.52,1.67-4.52.74-4.14,1.24-7.31,1.66-3.5.46-4.41-.09-8.97-.17-4.21-.07-7.3.34-11,.83-4.54.6-6.02,1.15-11.65,2.31-4.87,1.01-9.17,1.66-17.76,2.96-11.89,1.8-12.06,1.5-15.26,2.53-7.06,2.27-10.59,3.41-13.23,5.72-.35.3-2.16,1.92-4.93,2.72-1.24.36-3.05.86-4.47-.08-1.2-.79-1.58-2.24-1.69-2.66-.43-1.64.31-2.16-.19-3.86-.31-1.07-1.02-1.7-1.63-2.27-1.69-1.61-3.68-2.03-4.4-2.15-.5-.08-1.72-.09-4.15.02-2.64.12-2.91-.04-3.07-.21-.75-.78.34-2.07.04-4.83-.09-.8-.28-1.93-1.15-2.89-1.14-1.26-2.81-1.43-3.27-1.48-2.21-.23-2.98.9-4.94.43-.73-.17-1.91-.65-1.91-1.22,0-1,3.63-1.78,6.78-2.46,2.6-.56,4.15-.89,6.38-.93,2.85-.04,3.17.46,5.98.36,1.71-.06,2.53-.28,5.64-.86,2.9-.54,5.97-1.05,7.78-1.3,3.18-.45,5.61-.52,10.33-.65,5.91-.17,6.48.04,10.47-.07,1.36-.04,3.84-.13,15.19-1.46,8.79-1.03,13.18-1.55,14.58-1.8,6.28-1.16,9.49-2.27,14.91-1.79,2.51.23,5.13.76,5.79.9,3.23.67,4.22,1.16,8.78,2.54,7.71,2.33,11.57,3.5,13.05,3.83,2.57.57,4.66.91,4.81,1.91Z"/>
    <path class="cls-3" d="M270.66,163.33c-.99-.49-2.2-1.07-3.69-.85-1.79.26-3.14,1.57-4.02,2.43-1.57,1.52-1.21,1.97-2.5,2.86-.6.41-.74.36-3.56,1.64-1.45.66-1.91.89-2.14,1.2,0,.01-.07.1-.11.19-.49.97.24,2.94,1.54,4.22,1.4,1.37,2.28.8,5.49,2.48,1.62.85,2.43,1.29,2.81,2.18.56,1.31-.08,2.72-.8,4.45-.44,1.07-.96,2.32-2.16,3.37-.96.84-2.12,1.35-4.55,1.75-3.32.54-5.5.3-8.67.23-1.23-.03-.16.03-7.31.18-7.06.15-9.24.13-12.26,1.26-1.49.56-4.09,1.57-4.14,3.09-.03.89.82,1.91,1.72,2.03,1.34.17,1.77-1.76,3.56-2.1,1.65-.31,3.51.92,4.38,2.3,1.18,1.87.71,4.31.5,5.36-.37,1.83-.92,2.54-.47,3.16.48.68,1.81.7,2.74.4,1.24-.41,1.43-1.27,3.29-3.25,1.54-1.64,2.32-2.46,3.32-2.49,1.7-.04,2.95,1.96,3.19,2.37,1.35,2.29.59,4.93.52,5.15-.49,1.6-1.32,2.03-1.14,3.25.12.82.74,1.79,1.59,2.04,1.48.45,2.77-1.55,5.67-3.87.53-.43,3.03-1.82,8.02-4.62,4.29-2.4,5.47-3,7.3-3.01,1.56-.01,1.83.41,3.98.6,2.59.23,4.81.17,6.69-.64,9.81-4.23,19.16-4.71,19.11-7.78-.02-1.14-1.84-2.41-5.54-4.88-1.14-.76-2.94-1.92-5.24-3.72-2.02-1.58-2.6-2.22-2.71-3.1-.21-1.68,1.57-2.25,1.9-3.99.48-2.52-2.55-5.01-6.45-8.22-2.34-1.93-4.85-3.17-9.85-5.66Z"/>
    <path class="cls-3" d="M63.84,67.27c-.57-.08-.76.74-2.55,2.52-1.76,1.74-2.48,1.86-2.53,2.63-.05.79.66,1.18,2.91,3.22,2.61,2.37,3.02,3.08,3.53,2.89.94-.35.63-3.24.4-5.48-.21-2.05-.59-5.62-1.75-5.79Z"/>
    <path class="cls-3" d="M48.27,66.19c-.75,0-1.3.91-1.37,1.03-.78,1.3.3,2.28.15,4.68-.13,2.07-1.02,2.72-.49,3.5.66.97,2.21.18,3.19,1.31.82.95.3,2.16,1.14,2.62.5.27,1.17.12,1.59-.16.66-.43.54-1.08,1.15-2.32.69-1.4,1.2-1.31,1.3-1.98.18-1.29-1.66-1.79-3.52-4.16-1.9-2.42-2.02-4.51-3.14-4.51Z"/>
    <path class="cls-1" d="M42.56,63.6c1.19.82,1.73,2.57,1.22,3.69-.34.77-.92.66-1.52,1.65-.7,1.16-.33,1.96-.79,2.18-.72.36-2.43-1.21-3.35-2.95-.26-.49-1.62-3.06-.53-4.33.57-.66,1.57-.71,2.43-.75.78-.04,1.7-.08,2.54.5Z"/>
    <path class="cls-1" d="M56.68,62.88c-1.25-.05-1.51-.4-2.35-.43-1.21-.05-2.83.59-3.32,1.74-.67,1.56.81,3.31,2.1,4.84.72.85,2.44,2.87,3.71,2.45.59-.2.52-.73,1.45-2.19,1.36-2.13,2.24-2.15,2.39-3.3.17-1.33-.86-2.88-2.01-3.2-.61-.17-.77.13-1.98.09Z"/>
    <path class="cls-1" d="M58.94,79.02c-.58-.14-1.4,1.42-2.1,2.76-1.12,2.13-2.25,4.28-1.47,5.14.44.49,1.32.37,2.91.15,1.41-.19,2.12-.29,2.44-.82.45-.73-.34-1.47-.96-3.78-.59-2.2-.36-3.33-.83-3.44Z"/>
    <path class="cls-1" d="M45.94,79.58c-.89-.12-1.68,1.06-2.82,2.73-1.23,1.81-2.56,3.77-1.89,4.72.29.41.75.35,3.43.44,3.54.12,4.07.28,4.43-.18.52-.66-.04-1.97-1.17-4.6-.86-2.01-1.3-3.01-1.99-3.1Z"/>
    <path class="cls-2" d="M74.09,38.11c-1.61-.37-1.86-.06-5.01-.15-4.53-.13-5.06-.82-7.64-.39-1.71.29-3.58.6-4.83,2.15-1.45,1.81-1.42,4.5-.51,6.38,1.01,2.08,2.99,2.91,5.46,3.95,3.23,1.36,3.52.5,7.12,1.9,2.71,1.05,3.5,1.91,6.21,2.42,2.12.4,3.28.19,3.88.03.64-.16,2.9-.74,3.83-2.66.2-.41.45-1.16.31-2.86-.1-1.14-.44-5.12-3.81-8.15-.59-.53-2.37-2.02-5.01-2.63Z"/>
    <path class="cls-4" d="M63.41,40.13c-1.03.19-3.91.74-4.36,2.58-.34,1.37.85,2.7,1.3,3.2,1.61,1.8,3.85,2.01,5.44,2.16,1.49.14,2.8.26,3.54-.57.66-.76.48-1.89.31-2.98-.18-1.15-.47-2.97-2-3.99-1.39-.93-2.97-.64-4.23-.4Z"/>
  </g>
</svg>